<?xml version="1.0" encoding="UTF-8" standalone="no"?>
<!-- Created with Inkscape (http://www.inkscape.org/) -->

<svg
   width="1512.7112mm"
   height="970.84442mm"
   viewBox="0 0 1512.7112 970.84442"
   version="1.1"
   id="svg1250"
   sodipodi:docname="dessin.svg"
   inkscape:version="1.1.2 (0a00cf5339, 2022-02-04)"
   inkscape:label="Walls"
   xmlns:inkscape="http://www.inkscape.org/namespaces/inkscape"
   xmlns:sodipodi="http://sodipodi.sourceforge.net/DTD/sodipodi-0.dtd"
   xmlns:xlink="http://www.w3.org/1999/xlink"
   xmlns="http://www.w3.org/2000/svg"
   xmlns:svg="http://www.w3.org/2000/svg"
   xmlns:rdf="http://www.w3.org/1999/02/22-rdf-syntax-ns#"
   xmlns:cc="http://creativecommons.org/ns#"
   xmlns:dc="http://purl.org/dc/elements/1.1/">
  <defs
     id="defs1253" />
  <metadata
     id="metadata4552">
    <rdf:RDF>
      <cc:Work
         rdf:about="">
        <dc:format>image/svg+xml</dc:format>
        <dc:type
           rdf:resource="http://purl.org/dc/dcmitype/StillImage" />
      </cc:Work>
    </rdf:RDF>
  </metadata>
  <sodipodi:namedview
     pagecolor="#ffffff"
     bordercolor="#666666"
     borderopacity="1"
     objecttolerance="10"
     gridtolerance="10"
     guidetolerance="10"
     inkscape:pageopacity="0"
     inkscape:pageshadow="2"
     inkscape:window-width="2560"
     inkscape:window-height="1350"
     id="namedview4550"
     showgrid="false"
     inkscape:zoom="0.65843025"
     inkscape:cx="2134.6225"
     inkscape:cy="2300.1677"
     inkscape:window-x="1920"
     inkscape:window-y="28"
     inkscape:window-maximized="1"
     inkscape:current-layer="layer3"
     inkscape:pagecheckerboard="0"
     inkscape:document-units="mm" />
  <g
     id="layer2"
     inkscape:label="Terrain">
    <image
       xlink:href="forteresse.png"
       width="1512.7112"
       height="970.84442"
       preserveAspectRatio="none"
       style="display:inline;fill:#ffff00;image-rendering:optimizeQuality"
       id="image1372"
       x="-642.76031"
       y="-501.53207"
       transform="translate(642.76031,501.53208)" />
  </g>
  <g
     inkscape:groupmode="layer"
     id="layer3"
     inkscape:label="Doors">
    <path
       style="display:inline;fill:none;stroke:#000000;stroke-width:2;stroke-linecap:butt;stroke-linejoin:miter;stroke-miterlimit:4;stroke-dasharray:none;stroke-opacity:1"
       d="M 411.49412,593.14256 V 569.38094"
       id="path2036" />
    <path
       style="fill:none;stroke:#000000;stroke-width:2;stroke-linecap:butt;stroke-linejoin:miter;stroke-miterlimit:4;stroke-dasharray:none;stroke-opacity:1"
       d="m 436.39996,593.75103 h 17.2901"
       id="path2459" />
    <path
       style="fill:none;stroke:#000000;stroke-width:2;stroke-linecap:butt;stroke-linejoin:miter;stroke-miterlimit:4;stroke-dasharray:none;stroke-opacity:1"
       d="m 504.7793,593.79061 h 16.74932"
       id="path2654" />
    <path
       style="fill:none;stroke:#000000;stroke-width:2;stroke-linecap:butt;stroke-linejoin:miter;stroke-miterlimit:4;stroke-dasharray:none;stroke-opacity:1"
       d="m 477.81053,549.28137 h 24.96532"
       id="path2849" />
    <path
       style="fill:none;stroke:#000000;stroke-width:2;stroke-linecap:butt;stroke-linejoin:miter;stroke-miterlimit:4;stroke-dasharray:none;stroke-opacity:1"
       d="m 850.78254,683.85303 h 14.94634"
       id="path2851" />
    <path
       style="fill:none;stroke:#000000;stroke-width:2;stroke-linecap:butt;stroke-linejoin:miter;stroke-miterlimit:4;stroke-dasharray:none;stroke-opacity:1"
       d="m 845.67397,662.9378 v 16.01038"
       id="path2853" />
    <path
       style="fill:none;stroke:#000000;stroke-width:2;stroke-linecap:butt;stroke-linejoin:miter;stroke-miterlimit:4;stroke-dasharray:none;stroke-opacity:1"
       d="m 890.77357,639.65036 v 17.50081"
       id="path2855" />
    <path
       style="fill:none;stroke:#000000;stroke-width:2;stroke-linecap:butt;stroke-linejoin:miter;stroke-miterlimit:4;stroke-dasharray:none;stroke-opacity:1"
       d="M 845.94612,612.91887 V 590.30621"
       id="path2857" />
    <path
       style="fill:none;stroke:#000000;stroke-width:2;stroke-linecap:butt;stroke-linejoin:miter;stroke-miterlimit:4;stroke-dasharray:none;stroke-opacity:1"
       d="M 911.99188,496.58386 H 889.34641"
       id="path2859" />
    <path
       style="fill:none;stroke:#000000;stroke-width:2;stroke-linecap:butt;stroke-linejoin:miter;stroke-miterlimit:4;stroke-dasharray:none;stroke-opacity:1"
       d="m 774.03668,499.70189 v 25.16325"
       id="path2861" />
  </g>
  <g
     id="layer1"
     transform="translate(642.76031,501.53207)"
     style="display:inline"
     inkscape:label="Walls">
    <path
       style="fill:#ff0000;stroke:#000000;stroke-width:0.264583px;stroke-linecap:butt;stroke-linejoin:miter;stroke-opacity:1"
       d="m 122.80653,-60.189904 v -20.392654 h 20.53299 l -2.95617,11.973665 h -5.97733 v 4.627219 z"
       id="path13842"
       inkscape:connector-curvature="0" />
    <path
       style="fill:#ffff00;stroke:#000000;stroke-width:0.264583px;stroke-linecap:butt;stroke-linejoin:miter;stroke-opacity:1"
       d="m 122.80653,-55.623778 11.59949,3.376692 v 11.082787 l -11.59949,4.340886 z"
       id="path13844"
       inkscape:connector-curvature="0" />
    <path
       style="fill:#ffff00;stroke:#000000;stroke-width:0.264583px;stroke-linecap:butt;stroke-linejoin:miter;stroke-opacity:1"
       d="m 147.89583,-80.582558 3.75309,11.973665 h 11.02741 l 4.43716,-11.973665 z"
       id="path13846"
       inkscape:connector-curvature="0" />
    <path
       style="fill:#ff0000;stroke:#000000;stroke-width:0.264583px;stroke-linecap:butt;stroke-linejoin:miter;stroke-opacity:1"
       d="m 170.82838,-80.582558 3.95009,11.973665 h 9.08741 l 5.0996,-11.973665 z"
       id="path13848"
       inkscape:connector-curvature="0" />
    <path
       style="fill:#ffff00;stroke:#000000;stroke-width:0.264583px;stroke-linecap:butt;stroke-linejoin:miter;stroke-opacity:1"
       d="m 192.18202,-80.582558 4.70676,11.973665 h 5.77074 l 7.91626,7.916254 10.24342,-5.8674 -11.53409,-14.022519 z"
       id="path13850"
       inkscape:connector-curvature="0" />
    <path
       style="fill:#ff0000;stroke:#000000;stroke-width:0.264583px;stroke-linecap:butt;stroke-linejoin:miter;stroke-opacity:1"
       d="m 223.53438,-62.801342 -5.2768,10.481522 7.40566,7.405634 v 5.197317 l 11.6979,3.783039 v -10.563146 z"
       id="path13852"
       inkscape:connector-curvature="0" />
    <path
       style="fill:#ff0000;stroke:#000000;stroke-width:0.264583px;stroke-linecap:butt;stroke-linejoin:miter;stroke-opacity:1"
       d="m 122.80653,-33.321652 11.59949,3.937476 v 28.96705927 h -11.59949 z"
       id="path13971"
       inkscape:connector-curvature="0" />
    <path
       style="fill:#ffff00;stroke:#000000;stroke-width:0.264583px;stroke-linecap:butt;stroke-linejoin:miter;stroke-opacity:1"
       d="m 122.80653,21.100519 h 11.59949 v 73.554775 l -11.59949,4.6033 z"
       id="path13973"
       inkscape:connector-curvature="0" />
    <path
       style="fill:#ffff00;stroke:#000000;stroke-width:0.264583px;stroke-linecap:butt;stroke-linejoin:miter;stroke-opacity:1"
       d="m 237.36114,-31.572227 -11.69792,3.980921 v 96.2175 h -10.7302 V 80.737126 H 191.06649 V 68.776716 H 179.47377 V 45.361276 H 157.25594 V 90.573064 H 247.8584 V -9.3457722 h -10.49726 z"
       id="path13975"
       inkscape:connector-curvature="0" />
    <path
       style="display:inline;fill:#ff0000;stroke:#000000;stroke-width:0.264583px;stroke-linecap:butt;stroke-linejoin:miter;stroke-opacity:1"
       d="m 122.80653,103.95513 11.59949,3.81974 v 5.9917 h 67.11791 v -3.71885 h 3.55235 v 52.53045 h -4.71905 v -26.00295 h -9.81859 v -12.08366 h -22.2029 v 11.60968 H 157.3832 v 43.95385 h 43.74492 v -3.93562 h 3.82053 v 4.04505 h 3.96546 v 4.39119 h -28.38809 v 43.63132 h 90.17124 v -44.25658 h -49.02303 v -3.7972 h 24.56323 v -25.97491 h 3.38314 v 25.97729 h 44.90522 v -64.70242 h -44.49173 v 24.31648 h -3.85743 v -27.38298 h 71.8657 V 92.553999 h -30.85479 v -4.648782 h 30.17544 V 69.572609 H 286.4909 V 66.32633 h 30.86611 V 46.625614 h -30.7009 v -4.145227 h 30.73217 V 23.245205 H 286.8651 v -3.177963 h 30.75969 V -0.6105536 h -50.10063 v -9.2875628 h 58.50599 V 122.20368 h -22.1403 v 68.72722 h -25.00048 v 45.25086 H 172.17198 V 190.42128 H 148.47873 V 125.5119 h -25.6722 z"
       id="path14289"
       inkscape:connector-curvature="0" />
    <path
       style="fill:#ffff00;stroke:#000000;stroke-width:0.264583px;stroke-linecap:butt;stroke-linejoin:miter;stroke-opacity:1"
       d="m -49.64508,-91.25385 v 45.006023 h -21.699327 v -23.306697 h -57.864903 v -8.84047 h -19.69014 l -2.3178,8.650129 h -57.15447 v 27.113601 h -23.3067 v -25.717739 h -24.51222 v -12.055184 h -22.10117 v 10.849663 h -20.89566 v 69.51826747 h -25.76856 l 0.071,-12.43684447 10.96943,-11.1763 0.35518,-20.991056 -10.37677,-12.47931 -23.47105,0.07104 -9.77995,12.408275 0.28414,20.091983 3.42574,3.807367 12.09765,-11.442316 0.0954,-2.881839 0.60628,-2.97725 1.82705,-2.013361 3.40342,-0.70827 3.56782,0.685992 2.23874,2.695768 0.31645,2.787917 -1.23161,2.678161 -2.15372,1.76644 -2.64225,0.779306 -13.66255,12.457034 4.82208,5.625756 v 10.84966329 h -26.11959 V -68.750825 l 23.58875,-22.835927 z"
       id="path4560"
       inkscape:connector-curvature="0"
       sodipodi:nodetypes="ccccccccccccccccccccccccccccccccccccccccccccc" />
    <path
       style="fill:#ffff00;stroke:#000000;stroke-width:0.264583px;stroke-linecap:butt;stroke-linejoin:miter;stroke-opacity:1"
       d="m -33.973333,0.36556619 2.411042,-9.04136839 h 5.022983 V -27.763188 l 11.854286,-4.018413 V 1.3701627 Z"
       id="path4562"
       inkscape:connector-curvature="0" />
    <path
       style="fill:#ff0000;stroke:#000000;stroke-width:0.264583px;stroke-linecap:butt;stroke-linejoin:miter;stroke-opacity:1"
       d="m -13.88135,-35.799987 -12.055184,-4.420235 V -68.95175 l 9.041394,-8.237723 11.0505881,6.22853 -7.6349491,7.032175 z"
       id="path4564"
       inkscape:connector-curvature="0" />
    <path
       style="fill:#ffff00;stroke:#000000;stroke-width:0.264583px;stroke-linecap:butt;stroke-linejoin:miter;stroke-opacity:1"
       d="m -8.8583678,-85.628094 6.22853,11.452437 11.4524105,-12.457033 0.4018491,-14.66715 -11.4524369,4.420234 -0.4018227,4.822084 z"
       id="path4566"
       inkscape:connector-curvature="0" />
    <path
       style="fill:#ff0000;stroke:#000000;stroke-width:0.264583px;stroke-linecap:butt;stroke-linejoin:miter;stroke-opacity:1"
       d="m -2.6298378,-109.13572 11.8542596,4.21932 0.6027738,-13.26071 -13.7630241,-13.96391 -6.7308105,11.65334 7.0322047,5.92713 z"
       id="path4568"
       inkscape:connector-curvature="0"
       sodipodi:nodetypes="ccccccc" />
    <path
       style="fill:#ffff00;stroke:#000000;stroke-width:0.264583px;stroke-linecap:butt;stroke-linejoin:miter;stroke-opacity:1"
       d="m -19.406644,-129.42862 10.4478139,-5.92712 -13.6625279,-13.46163 -12.75842,-0.30139 4.018412,12.65796 h 4.21931 z"
       id="path4570"
       inkscape:connector-curvature="0" />
    <path
       style="fill:#ff0000;stroke:#000000;stroke-width:0.264583px;stroke-linecap:butt;stroke-linejoin:miter;stroke-opacity:1"
       d="m -39.800014,-148.41552 -3.315176,11.55287 -6.190215,0.0786 -6.065887,6.25041 -10.692994,-5.56332 13.606331,-12.72039 z"
       id="path4572"
       inkscape:connector-curvature="0"
       sodipodi:nodetypes="ccccccc" />
    <path
       style="fill:#ffff00;stroke:#000000;stroke-width:0.264583px;stroke-linecap:butt;stroke-linejoin:miter;stroke-opacity:1"
       d="m -70.842122,-132.34195 7.233127,10.84966 -6.429428,7.33359 -47.718457,0.2009 -8.63957,-7.83585 5.72622,-12.45703 7.43403,8.33816 36.366499,-0.30139 z"
       id="path4574"
       inkscape:connector-curvature="0" />
    <path
       style="fill:#ff0000;stroke:#000000;stroke-width:0.264583px;stroke-linecap:butt;stroke-linejoin:miter;stroke-opacity:1"
       d="m -123.48309,-136.4608 -10.54831,6.22851 -7.83587,-7.13264 -3.91792,0.10043 -3.81749,-11.85426 h 11.75382 z"
       id="path4576"
       inkscape:connector-curvature="0" />
    <path
       style="fill:#ffff00;stroke:#000000;stroke-width:0.264583px;stroke-linecap:butt;stroke-linejoin:miter;stroke-opacity:1"
       d="m -154.02292,-148.91783 -4.52069,11.35197 -4.31978,0.10047 -5.82668,6.02757 -10.95012,-5.82668 12.25611,-11.45241 z"
       id="path4578"
       inkscape:connector-curvature="0" />
    <path
       style="fill:#ff0000;stroke:#000000;stroke-width:0.264583px;stroke-linecap:butt;stroke-linejoin:miter;stroke-opacity:1"
       d="m -183.65858,-134.15022 -7.53449,8.53909 h -36.36647 l -7.13267,-8.33819 -6.83127,11.65336 8.74,8.13726 h 46.31204 l 9.24229,-8.63957 z"
       id="path4580"
       inkscape:connector-curvature="0" />
    <path
       style="fill:#ffff00;stroke:#000000;stroke-width:0.264583px;stroke-linecap:butt;stroke-linejoin:miter;stroke-opacity:1"
       d="m -238.40923,-136.86265 -11.55288,-11.75379 h -14.66715 l 3.81749,11.95472 h 4.82206 l 6.52989,6.32896 z"
       id="path4582"
       inkscape:connector-curvature="0" />
    <path
       style="fill:#ff0000;stroke:#000000;stroke-width:0.264583px;stroke-linecap:butt;stroke-linejoin:miter;stroke-opacity:1"
       d="m -269.25042,-148.71691 -2.81286,12.05519 h -5.62576 l -4.92254,5.52529 -11.45241,-5.62575 12.95931,-11.65334 z"
       id="path4584"
       inkscape:connector-curvature="0" />
    <path
       style="fill:#ffff00;stroke:#000000;stroke-width:0.264583px;stroke-linecap:butt;stroke-linejoin:miter;stroke-opacity:1"
       d="m -296.97735,-133.84886 5.42483,11.15105 -6.93171,8.53911 h -48.52215 l -8.74001,-7.73541 5.22391,-12.05521 7.0322,8.0368 h 38.17477 z"
       id="path4586"
       inkscape:connector-curvature="0" />
    <path
       style="fill:#ff0000;stroke:#000000;stroke-width:0.264583px;stroke-linecap:butt;stroke-linejoin:miter;stroke-opacity:1"
       d="m -365.01003,-130.51455 11.22365,-6.32219 -13.21266,-12.00508 h -12.64439 l 4.47525,11.72094 4.33319,0.14205 z"
       id="path4588"
       inkscape:connector-curvature="0" />
    <path
       style="fill:#ffff00;stroke:#000000;stroke-width:0.264583px;stroke-linecap:butt;stroke-linejoin:miter;stroke-opacity:1"
       d="m -383.76351,-148.34456 -3.19662,11.50782 h -5.96701 l -4.83044,5.25666 -10.72642,-5.96702 12.00507,-11.29472 z"
       id="path4590"
       inkscape:connector-curvature="0" />
    <path
       style="fill:#ff0000;stroke:#000000;stroke-width:0.264583px;stroke-linecap:butt;stroke-linejoin:miter;stroke-opacity:1"
       d="m -412.40576,-134.75299 5.82667,11.65336 -6.93173,6.02758 v 25.11499 h -14.16485 v -11.35197 h -20.49382 v 10.950121 h -15.57128 v -25.717741 l -6.12806,-6.12804 5.62576,-11.75382 7.43403,9.44324 h 36.46694 z"
       id="path4592"
       inkscape:connector-curvature="0" />
    <path
       style="fill:#ffff00;stroke:#000000;stroke-width:0.264583px;stroke-linecap:butt;stroke-linejoin:miter;stroke-opacity:1"
       d="m -478.30746,-133.04516 10.04599,-5.52529 -11.25151,-11.65336 -13.46162,0.30138 4.62115,11.65334 h 4.5207 z"
       id="path4594"
       inkscape:connector-curvature="0" />
    <path
       style="fill:#ff0000;stroke:#000000;stroke-width:0.264583px;stroke-linecap:butt;stroke-linejoin:miter;stroke-opacity:1"
       d="m -496.993,-149.7215 -4.11885,11.55287 h -4.72162 l -6.83127,7.43405 -11.65335,-5.92714 14.86806,-13.36117 z"
       id="path4598"
       inkscape:connector-curvature="0" />
    <path
       style="fill:#ffff00;stroke:#000000;stroke-width:0.264583px;stroke-linecap:butt;stroke-linejoin:miter;stroke-opacity:1"
       d="m -528.03511,-133.34655 5.92714,10.7492 -6.63036,4.72163 v 7.33356 l -13.16024,4.82208 v -12.85885 z"
       id="path4600"
       inkscape:connector-curvature="0" />
    <path
       style="fill:#ff0000;stroke:#000000;stroke-width:0.264583px;stroke-linecap:butt;stroke-linejoin:miter;stroke-opacity:1"
       d="m -541.39627,-102.30444 11.85426,4.319775 v 4.018386 l 6.93174,6.529917 -6.32898,12.858856 -12.7584,-14.667151 z"
       id="path4602"
       inkscape:connector-curvature="0" />
    <path
       style="fill:#ffff00;stroke:#000000;stroke-width:0.264583px;stroke-linecap:butt;stroke-linejoin:miter;stroke-opacity:1"
       d="m -525.82499,-72.367389 11.15105,-6.429428 7.73541,8.036772 v 45.508335 l -7.93633,10.44784 -12.25611,-6.128041 9.34277,-10.44784 v -32.549017 z"
       id="path4604"
       inkscape:connector-curvature="0" />
    <path
       style="fill:#ff0000;stroke:#000000;stroke-width:0.264583px;stroke-linecap:butt;stroke-linejoin:miter;stroke-opacity:1"
       d="m -529.84338,-17.415837 7.13265,10.4478409 -7.23311,6.63035269 V 4.7858013 l -12.65795,4.8220843 V -3.2509706 Z"
       id="path4606"
       inkscape:connector-curvature="0" />
    <path
       style="fill:#ffff00;stroke:#000000;stroke-width:0.264583px;stroke-linecap:butt;stroke-linejoin:miter;stroke-opacity:1"
       d="m -542.90317,12.8226 12.55748,4.018386 v 5.023008 l 7.43404,5.927144 -5.62576,12.356544 -14.56668,-14.365764 z"
       id="path4608"
       inkscape:connector-curvature="0" />
    <path
       style="fill:#ff0000;stroke:#000000;stroke-width:0.264583px;stroke-linecap:butt;stroke-linejoin:miter;stroke-opacity:1"
       d="m -525.02131,42.759649 10.64875,-5.726219 7.13265,6.831278 h 5.22392 l 3.91793,12.959318 h -12.55748 z"
       id="path4610"
       inkscape:connector-curvature="0" />
    <path
       style="fill:#ffff00;stroke:#000000;stroke-width:0.264583px;stroke-linecap:butt;stroke-linejoin:miter;stroke-opacity:1"
       d="m -493.87874,56.623128 4.31977,-11.954748 h 4.31978 l 7.23311,-6.931713 11.15105,6.630352 -11.05059,12.657932 z"
       id="path4612"
       inkscape:connector-curvature="0" />
    <path
       style="fill:#ff0000;stroke:#000000;stroke-width:0.264583px;stroke-linecap:butt;stroke-linejoin:miter;stroke-opacity:1"
       d="m -469.96929,29.80033 6.12806,11.954722 7.43403,-8.539083 h 28.53061 v 80.367901 l 4.21932,1.0046 3.41563,3.81749 4.62116,1.80827 V 22.366306 h -46.01063 z"
       id="path4614"
       inkscape:connector-curvature="0" />
    <path
       style="fill:#ff0000;stroke:#000000;stroke-width:0.264583px;stroke-linecap:butt;stroke-linejoin:miter;stroke-opacity:1"
       d="m -34.409075,20.791876 h 19.321754 V 53.61045 L -26.595135,49.632439 V 28.747871 h -4.404228 z"
       id="path4616"
       inkscape:connector-curvature="0" />
    <path
       style="fill:#ffff00;stroke:#000000;stroke-width:0.264583px;stroke-linecap:butt;stroke-linejoin:miter;stroke-opacity:1"
       d="m -26.737217,61.850607 11.507815,-3.551793 v 12.360222 l -11.649869,12.644385 -4.972527,-10.371217 5.540799,-6.109097 z"
       id="path4618"
       inkscape:connector-curvature="0" />
    <path
       style="fill:#ff0000;stroke:#000000;stroke-width:0.264583px;stroke-linecap:butt;stroke-linejoin:miter;stroke-opacity:1"
       d="m -39.665738,80.604062 11.223679,6.393233 -8.52432,7.387723 V 162.8636 l -3.551793,4.97253 -3.551793,1.42071 -2.983495,-3.5518 -0.568299,-3.26765 -1.989005,-1.13657 0.710354,-71.320003 z"
       id="path4620"
       inkscape:connector-curvature="0" />
    <path
       style="fill:#ffff00;stroke:#000000;stroke-width:0.264583px;stroke-linecap:butt;stroke-linejoin:miter;stroke-opacity:1"
       d="m -100.04622,239.36924 2.983492,2.3442 4.972527,0.56827 1.136571,-6.25115 -0.497246,-8.09809 -49.085814,0.28414 -8.24015,7.67189 5.3277,10.3002 8.02704,-6.74841 z"
       id="path4622"
       inkscape:connector-curvature="0"
       sodipodi:nodetypes="cccccccccc" />
    <path
       style="fill:#ff0000;stroke:#000000;stroke-width:0.264583px;stroke-linecap:butt;stroke-linejoin:miter;stroke-opacity:1"
       d="m -157.37217,243.48932 10.3002,6.89049 -11.29472,11.50781 h -15.13062 l 4.04903,-12.14712 h 5.54079 z"
       id="path4624"
       inkscape:connector-curvature="0" />
    <path
       style="fill:#ffff00;stroke:#000000;stroke-width:0.264583px;stroke-linecap:butt;stroke-linejoin:miter;stroke-opacity:1"
       d="m -181.73749,250.23773 4.68836,12.00507 h -11.36573 l -14.49131,-12.92852 10.58434,-6.1091 6.53531,7.17463 z"
       id="path4626"
       inkscape:connector-curvature="0" />
    <path
       style="fill:#ff0000;stroke:#000000;stroke-width:0.264583px;stroke-linecap:butt;stroke-linejoin:miter;stroke-opacity:1"
       d="m -201.5565,234.53881 -5.11459,11.86299 -7.81394,-7.45876 h -36.58346 l -7.38775,7.31668 -4.54628,-11.36573 7.17463,-7.7429 h 46.38641 z"
       id="path4628"
       inkscape:connector-curvature="0" />
    <path
       style="fill:#ffff00;stroke:#000000;stroke-width:0.264583px;stroke-linecap:butt;stroke-linejoin:miter;stroke-opacity:1"
       d="m -272.8765,242.99209 11.50781,6.18011 -13.14164,12.71542 h -13.28373 l 4.12009,-11.79195 h 4.19111 z"
       id="path4630"
       inkscape:connector-curvature="0" />
    <path
       style="fill:#ff0000;stroke:#000000;stroke-width:0.264583px;stroke-linecap:butt;stroke-linejoin:miter;stroke-opacity:1"
       d="m -294.96866,249.52738 3.48075,12.78646 -11.79195,0.35518 -15.41478,-13.852 10.86848,-6.18011 6.81945,6.89047 z"
       id="path4632"
       inkscape:connector-curvature="0" />
    <path
       style="fill:#ffff00;stroke:#000000;stroke-width:0.264583px;stroke-linecap:butt;stroke-linejoin:miter;stroke-opacity:1"
       d="m -321.9623,245.97558 5.46976,-11.64987 -7.81394,-7.31671 h -33.88413 l 2.13109,3.05454 0.63931,2.98352 2.06005,2.48626 -0.071,3.26764 23.79701,-0.28414 z"
       id="path4634"
       inkscape:connector-curvature="0"
       sodipodi:nodetypes="cccccccccc" />
    <path
       style="fill:#ff0000;stroke:#000000;stroke-width:0.264583px;stroke-linecap:butt;stroke-linejoin:miter;stroke-opacity:1"
       d="m -73.152701,-23.543878 h 24.210857 v 14.7676135 h 5.726192 l 2.31058,8.84047026 h -32.247629 z"
       id="path4636"
       inkscape:connector-curvature="0" />
    <path
       style="fill:#ffff00;stroke:#000000;stroke-width:0.264583px;stroke-linecap:butt;stroke-linejoin:miter;stroke-opacity:1"
       d="m -72.65039,21.361683 h 30.037512 l -1.808295,7.735411 h -4.822058 V 54.212086 L -61.49934,68.176001 h -79.4638 V 44.969766 h 68.513675 z"
       id="path4638"
       inkscape:connector-curvature="0" />
    <path
       style="fill:#ff0000;stroke:#000000;stroke-width:0.264583px;stroke-linecap:butt;stroke-linejoin:miter;stroke-opacity:1"
       d="m -163.97853,45.512348 v 23.5839 h -68.47856 v -24.57839 h -65.92131 v 27.277775 h -5.25663 V 21.076012 h 71.32 V -27.8708 l 6.18924,-0.07104 -0.14207,49.014342 9.85937,-0.213108 v -48.421662 h 6.83125 v 72.732955 z"
       id="path4640"
       inkscape:connector-curvature="0"
       sodipodi:nodetypes="ccccccccccccccccc" />
    <path
       style="fill:#ffff00;stroke:#000000;stroke-width:0.264583px;stroke-linecap:butt;stroke-linejoin:miter;stroke-opacity:1"
       d="m -391.8616,23.207072 h 69.8993 v 90.925948 h -4.26214 V 44.517858 h -42.90568 v 66.773722 h 26.1412 v 4.54628 h -26.42534 v 66.48958 h 35.51793 v 11.0816 h 20.45833 v -10.79746 h 25.00463 l 2.65247,9.89912 h 17.80585 v -9.33083 h 34.38137 v -28.69848 h 5.68288 v 27.27778 h 54.27141 v 10.5133 h 18.46932 v -9.37673 h 61.090864 V 93.958827 h -28.130214 v -4.262173 h 50.86168 V 205.34307 h -321.36629 z"
       id="path4642"
       inkscape:connector-curvature="0" />
    <path
       style="fill:#ff0000;stroke:#000000;stroke-width:0.264583px;stroke-linecap:butt;stroke-linejoin:miter;stroke-opacity:1"
       d="m -303.6077,86.962 h 5.02301 v 23.90947 h 65.29893 V 90.377639 h 27.32508 v 3.616563 h -22.50302 v 45.006018 h -5.02299 v -24.31129 h -70.52283 z"
       id="path4644"
       inkscape:connector-curvature="0" />
    <path
       style="fill:#ffff00;stroke:#000000;stroke-width:0.264583px;stroke-linecap:butt;stroke-linejoin:miter;stroke-opacity:1"
       d="m -189.68618,90.176714 v 4.62116 h 52.44007 v -5.022983 z"
       id="path4646"
       inkscape:connector-curvature="0" />
  </g>
</svg>
