<?xml version="1.0" encoding="UTF-8" standalone="no"?>
<!DOCTYPE svg PUBLIC "-//W3C//DTD SVG 20010904//EN"
              "http://www.w3.org/TR/2001/REC-SVG-20010904/DTD/svg10.dtd">

<svg xmlns="http://www.w3.org/2000/svg"
     width="1512.52mm" height="970.723mm"
     viewBox="0 0 4288 2752">
  <path id="Corps de Garde"
        fill="none" stroke="black" stroke-width="1"
        d="M 2188.00,1209.00
           C 2188.00,1209.00 2401.50,1209.00 2401.50,1209.00
             2401.50,1209.00 2480.00,1288.08 2480.00,1288.08
             2480.00,1288.08 2480.00,1407.00 2480.00,1407.00
             2480.00,1407.00 2736.00,1407.00 2736.00,1407.00
             2736.00,1407.00 2736.00,1754.00 2736.00,1754.00
             2736.00,1754.00 2670.00,1754.00 2670.00,1754.00
             2670.00,1754.00 2670.00,1952.00 2670.00,1952.00
             2670.00,1952.00 2602.00,1952.00 2602.00,1952.00
             2602.00,1952.00 2602.59,2078.00 2602.00,2078.00
             2601.41,2078.00 2320.00,2078.00 2320.00,2078.00
             2320.00,2078.00 2320.00,1952.00 2320.00,1952.00
             2320.00,1952.00 2253.00,1952.00 2253.00,1952.00
             2253.00,1952.00 2253.00,1761.00 2253.00,1761.00
             2253.00,1761.00 2188.00,1761.00 2188.00,1761.00
             2188.00,1761.00 2188.00,1209.00 2188.00,1209.00 Z" />
</svg>
