<?xml version="1.0" encoding="UTF-8" standalone="no"?>
<!DOCTYPE svg PUBLIC "-//W3C//DTD SVG 20010904//EN"
              "http://www.w3.org/TR/2001/REC-SVG-20010904/DTD/svg10.dtd">

<svg xmlns="http://www.w3.org/2000/svg"
     width="1512.52mm" height="970.723mm"
     viewBox="0 0 4288 2752">
  <path id="F6"
        fill="none" stroke="black" stroke-width="1"
        d="M 2398.00,1671.00
           C 2398.00,1671.00 2398.00,1761.00 2398.00,1761.00
             2398.00,1761.00 2196.00,1761.00 2196.00,1761.00
             2196.00,1761.00 2196.00,1217.00 2196.00,1217.00
             2196.00,1217.00 2398.00,1217.00 2398.00,1217.00
             2398.00,1217.00 2470.00,1287.74 2470.00,1287.74
             2470.00,1287.74 2470.00,1658.00 2470.00,1658.00
             2470.00,1658.00 2326.00,1658.00 2326.00,1658.00
             2326.00,1658.00 2326.00,1558.00 2326.00,1558.00
             2326.00,1558.00 2275.00,1558.00 2275.00,1558.00
             2275.00,1558.00 2275.00,1671.00 2275.00,1671.00
             2275.00,1671.00 2398.00,1671.00 2398.00,1671.00 Z" />
</svg>
